<svg xmlns="http://www.w3.org/2000/svg" xml:space="preserve" style="fill-rule:evenodd;clip-rule:evenodd;stroke-linejoin:round;stroke-miterlimit:2" viewBox="0 0 142 142"><path d="m1326 1750-1-1-2-1-1 3 4-1Zm-420 11-1-3-2 1v2h3Zm-163 551v2l1 1 1-3h-2Zm499-1982 2 1 2-4-1-1-3 4Zm25 1427h2l-1-4h-2l1 4Zm-543 539 1-3-1-1-1 2 1 2Zm147-1024-2 2 2 2 2-1-2-3Zm107 590-2-1-2 5 1 1 3-5Zm-6-10 2 1 2-5h-2l-2 4Zm-15-100 2-1-2-4-2 1 2 4Zm-295 433 2 2 3-4-2-1-3 3Zm356-437-3-1-1 1 2 2 2-2Zm247-1442-2-1a11353 11353 0 0 1 2 1Zm-187 1399-1 2 2 2 1-2-2-2Zm97 10 2-1-1-4h-2l1 5Zm-258-486-1-1-1 5 2-4Zm-33 543-2 1 3 4 1-1-2-4Zm115-66 2 2 2-3-1-1-3 2Zm-4-78 2-3-2-1-2 1 2 3Zm-249 694-3-1-2 1 2 2 3-2Zm15-5-2-2-3 3 2 2 3-3Zm7-24v-2l-4 1 1 1h3Zm-55-6-2-2-2 2 1 2 3-2Zm-41-94c5-3 5-3 4-7l-4 7Zm211-123-1-1-2 6h1l2-5Zm5-17 2 1 1-6-1-1-2 6Zm-194 128-2-2c-1 2-3 3-2 8l4-6Zm247-279 1 1 3-6-2-1-2 6Zm12-8 2 1 3-7-2-1-3 7Zm-142-177 1-4v-2h-1v6Zm149-481c5 0 6-1 3-5l-3 5Zm82 417-1-1a1126 1126 0 0 1-2 5l3-4Zm-319-129-2-2-3 8h2l3-6Zm163-6 2 1 2-5-1-1-3 5Zm92-214 3 2 2-6-2-1-3 5Zm-179 926 3 1 1-5-2-1-2 5Zm122-280h1l3-6h-1l-3 6Zm137-1096h2l1-5h-3v5Zm-34 958-1-1-4 6 1 1 4-6Zm143-976 1 2 5-5-2-2-4 5ZM854 2085l2 1 1-4v-3h-1l-2 6Zm134-376-3-3-2 3c-1 1 1 2 2 2l3-2Zm-58-738-2-1-3 6h1l4-5Zm-133 418-1-1-2 4-1 4 1 1 3-8Zm0 391c-6-1-7 1-8 3l2 3 6-6Zm546-1158-2-2-4 6 5-1 1-3Zm-291 235-3-2a1268 1268 0 0 0-1 6l4-4Zm-346 683 2 1 3-6-2-1-3 6Zm204-446h2v-8h-2v8Zm10 366c3-4 3-4 1-8l-1 8Zm-160 843-3 8c6 0 8-1 3-8Zm146-1029-3-8c-4 6 0 7 3 8Zm-26-210c-4 4-6 6-4 9l2 1 2-10Zm151-197 1 2c3-1 6-1 7-7l-8 5Zm182-35c-4 1-6 3-4 9 1-4 2-7 4-9Zm-115 881 2 1 5-6-2-1-5 6Zm-241 113 5-4v-4c-4 1-7 2-5 8Zm-109 471 1 2c2 1 5 1 7-5l-8 3ZM966 930l3 1 2-6-2-1-3 6Zm-196 679c6-2 6-2 7-6l-7 6Zm-76 559c5-1 6-4 3-8l-3 8Zm108-389 3-4-2-3-4 2 3 5Zm136 288 2 1 3-11h-2l-3 10Zm32-451c3-7 3-7-4-8l4 8Zm-160 609c6 1 8 0 8-3l-3-3-5 6Zm-127-44 3-9c-7 4-7 4-3 9Zm193-91-2-1c-2 3-4 6-1 12l3-11Zm-96-668h3c-1-3 4-5 0-10l-3 10Zm146-335c-5 2-7 4-4 11l4-11Zm17 662-9 3 4 6 5-9Zm40-832-2-2c-3 1-5 3-4 10l6-8Zm98 802c4-2 8-3 6-9-3 2-6 3-6 9Zm40-2c8-4 8-4 9-11l-9 11Zm-157-16-3-3-4 2 2 4 5-3Zm-43-740 3 1 2-9-2-1-3 9Zm46 908c-4 1-7 3-4 7l4-7Zm-82-75-5 8c4-1 7-3 5-8Zm65-516-1-11c-6 6-4 9 1 11Zm105 436-10 4c3 5 3 5 10-4Zm-236 52c-3 0-7-2-9 3 5 3 7 0 9-3Zm301-61c-5 0-7 1-5 5l4 1 1-6Zm-423 578 3 1c1-2 6-3 2-8h-3l-2 7Zm157-444c-6 4-6 4-3 9l3-9Zm17-1c-7 5-7 5 0 11v-11Zm130-195c5-4 5-6-1-10l1 10Zm-55 73c10-2 10-2 6-8l-6 8Zm-9 201-2-1-5 12c5-2 5-7 7-11Zm81-222-6 8h6c2-2 4-4 0-8Zm27 47c3-3 3-6 0-8l-3 1c-3 4 0 5 3 7Zm-183 94c8-2 9-3 5-9l-5 9Zm-207 382c4-1 7-3 7-8-5 1-8 2-7 8Zm7-107-3-1c-3 5-3 5-2 12l5-11Zm113-679c-6 6-6 6-7 13 5-4 6-7 7-13Zm85-160c4-7 4-7 0-12v12Zm39-275c10-3 10-3 5-9l-5 9Zm-63 251-2 9c8-2 8-2 2-9Zm-17 961c8-1 8-1 3-8l-3 8Zm366-483 6 6c2-8 2-8-6-6Zm-239-718c-8 3-8 4-7 11l7-11Zm138 718c8-2 8-2 8-9-4 3-7 4-8 9Zm-288-488c-6 11-6 11-1 13l1-13Zm205 484-1-2c-7 0-7 0-10 7l11-5Zm-196 492 2 1c4-2 6-5 3-11l-5 10Zm-26-409c4-2 9-3 9-10-5 2-8 5-9 10Zm295-122c4-2 11-2 10-10l-10 10Zm-360 267-2-1c-3 2-6 5-4 10l6-9Zm196-705c-4 7-4 7-1 12l1-12Zm-201 893c-9 4-9 4-8 13l8-13Zm258-423c5-2 7-4 5-7-1-1-3-3-4-2-4 2-2 5-1 9Zm-244 616c5 0 8-2 8-6l-2-2c-5 0-5 3-6 7v1Zm17 3-2-2c-5 0-6 4-4 10l6-8Zm153-554c-4 4-4 7-1 10 6-4 6-4 1-10Zm20-454 3 1 2-12-2-1-3 12Zm-90-59h3c1-4 3-7-3-12v12Zm80 429-1 1c4 7 4 7 10 6l-9-7Zm-42-65c-6 4-7 6-5 14l5-14Zm127 14c4-7 4-7 1-11-4 5-4 5-1 11Zm-88-280 2 1 5-15-2-1-5 15Zm16-396h-2c-2 3-5 7-2 12l4-12Zm-4 307 7-1c-1-3 0-7-4-10l-3 11Zm-47 485 4 9 8-8-12-1Zm65 332c6-5 6-5 5-13l-5 13Zm24-833c4-6 4-6 2-12-4 6-4 6-2 12Zm-86 850h-3c-2 3-4 6 1 12l2-12Zm53-871c-3 5-4 9-1 13 5-4 4-8 1-13Zm18-156c-5 4-7 7-6 13 4-3 7-6 6-13Zm139-244c-4 2-9 2-12 9 6-2 10-4 12-9Zm3-222c8 4 6-3 10-5l-1-2-9 7ZM737 2311c-8-1-8-1-8 7 3-1 7-1 8-7Zm-35-22c-7 2-7 6-7 11 6-1 8-4 7-11Zm29-222c-6 2-7 6-8 12 6-2 8-6 8-12Zm193-362 4-5-4-4-4 3c0 2 2 4 4 6Zm0-132c9-6 9-6 10-14l-10 14Zm-258 624-2-1c-7 3-6 3-5 11l7-10Zm21-203c10-2 10-3 11-14l-11 14Zm81-447-2-1c-3 4-7 8-5 15l7-14Zm47-291c3-4 4-9 1-15-3 6-5 10-1 15Zm-11 534-4-4c-4 1-7 3-7 7 5 3 7-1 11-3Zm12 410c3-5 5-9 1-14-4 4-5 8-1 14Zm12-33c-8 6-8 6-3 12l3-12Zm139-587-8 9h6c2-1 5-3 2-9Zm12 160 6 11c3-9 3-10-6-11Zm5-138c6 2 9-1 11-5-5-3-5-3-11 5Zm-168 729c8-4 8-4 8-11-5 2-8 5-8 11Zm-91 6c-6 0-9 2-9 8 6 1 8-2 9-8Zm168-317c3-6 3-10 0-15-4 5-3 10 0 15Zm-4-800c5-8 5-8-1-13-1 4-3 8 1 13ZM683 2248c-8 4-8 4-4 14l4-14Zm424-534c-4 5-4 5-1 10 5-4 5-4 1-10Zm-182-269 1-15-2-1c-2 5-4 10 1 16Zm135 228 6-10-10-2 4 12Zm-89 82 3-9-3-3-3 2c-2 3-2 6 3 10Zm-254 541-1-2c-9 3-9 3-7 11l8-9Zm613-560c3-1 8-1 7-6-1-2-4-3-5-3-6 2-4 5-2 9Zm-310 5c2 5 5 4 7 2 3-3 6-5 1-9l-8 7Zm-90 28c4-7 4-7-1-12-4 4-5 7 1 12Zm-51 45c-9 4-9 5-3 11 4-3 5-6 3-11Zm-36 35-8 15c13-7 13-9 8-15Zm104 191c5-8 6-9 5-16-8 4-2 11-5 16Zm-86 52c-5 6-6 6-1 11 4-5 4-6 1-11ZM999 888c-9 5-9 5-10 11 4-3 10-3 10-11ZM809 2242l-5 6c0 1 3 4 5 4 1 0 4-2 4-4l-4-6Zm-125 33c10-6 10-7 3-14l-3 14Zm39 84c8-4 8-5 7-12-4 3-7 7-7 12Zm89-1093c-1 13-1 13 4 15 0-5 1-10-4-15Zm278 434 5 8c3-3 7-5 5-11l-10 3Zm-263-165-3-1c-2 5-8 9-5 18l8-17Zm-139 471c-7 5-10 10-11 17 7-3 10-8 11-17Zm162 119c6-9 6-9 2-14-4 7-4 7-2 14Zm186-392c5-3 6-5 4-9s-5-2-8 0l4 9Zm-245-353 2 1c4-5 5-10 3-15h-2l-3 14Zm206 368c7-6 7-8-3-13l3 13Zm-126-69-8-5c-2 7-1 11 4 11l4-6Zm-3 406c4-5 6-10 2-15-5 7-5 7-2 15Zm73-391c-5 6-4 8 5 11 1-5 1-5-5-11Zm61-809c3 7 6 3 9 2 3-2 2-5 0-8l-9 6Zm-174 347c-4 9-4 10 2 16 2-6 4-10-2-16Zm62 365h3l4-13-11 4 4 9Zm80 136c6-1 9-4 12-10-9-1-9 6-12 10Zm243 1-3 7c4 4 7 8 14 7l-11-14Zm-328 308c4-6 4-10 1-17-6 6-4 11-1 17Zm465-327c-8 3-9 9-6 17l6-17Zm-307-46c5-4 8-8 6-14-9 5-9 6-6 14Zm-167 111c-1 5-6 8-1 14 7-7 7-7 1-14Zm13-729h-2l-4 20c9-6 5-13 6-20Zm-103 336c-6 5-7 10-5 18 4-6 7-11 5-18Zm127 372c-7 8-7 9-1 12 6-7 6-7 1-12Zm-90-3c10-2 10-3 11-10-7 0-10 3-11 10Zm203-29-15 1 7 10 8-11Zm-187-336 3 1c2-7 7-13 3-21l-6 20Zm-117 221c-6 6-9 10-6 18 6-5 5-11 6-18Zm241 4c-6 8-6 8 0 13 5-6 5-6 0-13Zm-43 167c6-8 6-8 0-14l-7 7 7 7Zm-234 409c-14 7-16 10-16 16 6-5 13-7 16-16Zm192-147c-2 6-6 11-1 18 4-6 6-12 1-18Zm75-33c5-4 7-9 8-17-8 4-8 11-8 17Zm-193-258c-10-2-10-2-13 7 7 1 7 1 13-7Zm246 104c-6 4-11 9-12 18 8-5 11-11 12-18Zm-163-229h-2c-1 3-5 5-1 9l9 7-6-16Zm-60-113c-8 10-10 14-9 20 5-5 9-11 9-20Zm423 201c-4 2-9 2-9 7 0 3 1 6 5 6 4-3 6-7 4-13Zm-461-130c8-6 8-7 5-16-5 4-8 9-5 16Zm300 39c-8-5-8-5-15 4l6 3 9-7Zm-61 248c6-5 10-11 11-21-8 6-8 14-11 21Zm69-140c9-6 9-6 4-12-7 4-7 4-4 12Zm-36-86 3-1 3-7-9-6-2 2 5 12Zm-157 200c-8 5-8 6-1 12 6-6 6-6 1-12Zm49-273c10-3 14-8 15-19l-15 19Zm94 276c6-5 10-10 12-20-7 6-11 12-12 20Zm-49-235 5-10-2-4c-1-1-4 0-4 1-3 4-5 9 1 13Zm-210 137c-8-2-10 0-10 9 6 1 9-3 10-9Zm223-28c-11-1-10 8-16 13 9 0 12-5 16-13Zm99-3c4-3 9-5 6-10s-7-3-11 0l5 10Zm-227-218c-2 7-8 12-6 22 6-7 8-14 6-22Zm-2 782c8-5 9-11 12-19-10 4-10 11-12 19Zm136-386c7-7 13-12 13-21-6 6-13 10-13 21Zm-163-341c-4 6-11 10-7 19 7-8 8-10 7-19Zm513 179c2-10 0-12-9-11 2 11 2 11 9 11Zm-292-120c-8-4-8-4-13 4 7 5 7 5 13-4Zm-85-49c-8-1-13 3-16 11 9 1 12-4 16-11Zm-193 439c13-9 15-11 15-18-10 6-12 7-15 18Zm-20-258c-11 0-11 1-13 12 10 2 8-7 13-12Zm106 5c9-1 12-7 14-13-9 0-13 4-14 13Zm454 4c2-12 1-15-8-18 1 7 1 13 8 18Zm-419-36c7 1 12 1 15-5 1-4-1-5-5-7l-10 12Zm23-110c7-11 8-12 4-21-3 8-11 13-4 21Zm18 543c7-6 9-13 10-23-8 7-12 13-10 23Zm364-414c-8 8-7 13 3 16 3-6-1-10-3-16Zm19 6c3 9 3 9 16 7-2-9-9-6-16-7Zm-534 12c12 0 12 0 15-9-6 0-12 0-15 9Zm308-93c-9 7-10 9-7 16 11-7 11-8 7-16Zm-103-72c4 2 7 5 11 1l5-6-8-5-8 10Zm-211 417c-8 5-14 10-15 21 6-7 15-10 15-21Zm65 303c10-5 11-12 13-21-8 5-10 8-13 21Zm36-73c-9 4-11 11-12 19 9-3 10-11 12-19Zm-118-593c11-2 12-12 18-20-9 2-9 2-18 20Zm259 231c-11 7-13 11-13 21 6-5 11-11 13-21Zm-205-392c-8 10-8 14-5 22 6-6 6-14 5-22Zm-66 126c6-7 9-14 7-23-6 7-11 12-7 23Zm-48 593c-15 7-16 9-15 17 6-4 14-7 15-17Zm124-593c11-2 13-10 17-18-11 1-13 10-17 18Zm-13-14 3-18c-5 5-13 10-10 20l7-2Zm173-575v-15c-6 5-10 9-12 15h12ZM704 2130c10-4 12-12 13-21-11 3-10 12-13 21Zm227-26c-7 5-11 13-10 23 7-6 10-13 10-23Zm-151-150c9-6 12-9 14-20-9 4-12 8-14 20Zm175-4c8-7 15-13 16-23-10 5-12 7-16 23Zm-99-277c6-9-1-14-5-21-5 9 1 15 5 21Zm-130-166c4-7 7-14 8-23-10 6-10 14-8 23Zm3 553c12-7 17-14 16-22-9 5-12 13-16 22Zm252-427h3v-9l-1-5c1-2 1-4-2-5l-4 3c-5 7 0 11 4 16Zm-122-308c-7 17-7 22-4 28 6-8 4-18 4-28Zm99 663c8-6 14-12 13-22-9 4-12 11-13 22Zm35-84c-8 6-15 12-15 24 9-6 13-14 15-24Zm-34-327c-7-5-10-4-17 7 11 4 11 4 17-7Zm19 325c-8 6-13 13-16 23 12-7 15-10 16-23Zm-333 337c13-6 16-9 14-19-4 7-15 7-14 19Zm145-309c8-6 15-13 18-25-10 7-16 14-18 25Zm-13-526c-11 13-14 20-11 28 6-9 12-17 11-28Zm97 213c-8 8-8 14-2 22 7-10 7-13 2-22Zm74 136c-9 12-9 12 1 18 7-8 8-12-1-18Zm-128 110c7-6 15-12 18-22-8 5-17 11-18 22Zm48-548c0-10 8-17 5-28l-6 5c-3 7-6 15 1 23Zm498-737c-5 4-14 0-17 8 5 4 7 5 13 2 5-2 8-10 8-19l-4 9ZM802 1606c-14 1-15 14-20 21 10-3 16-10 20-21Zm151 379c-12 5-16 12-14 23 7-6 15-12 14-23Zm-244-463 2 1c9-6 9-15 9-24-4-2-6 0-7 3l-4 20Zm137 60c-10 3-17 9-19 20 11-2 17-8 19-20Zm-145 42c10-5 12-10 10-23-11 4-13 13-10 23Zm17 729c-5-1-8 0-10 4l-12 18v5l2 1c6-10 15-17 20-28Zm-42-687c-8 2-14 4-19 10l6 9c8-4 11-10 13-19Zm146 35c-2 5-5 8-3 12l9 11h5v-6l-11-17Zm56-147-1-3c-4-5-5-9-1-14l2-9c-12 14-14 18-10 30l10-4Zm22 151-14-16-5 10 14 13 5-7Zm-67-18c-8 10-5 20 6 26 8-11-4-17-6-26Zm473 34c-5 3-11 5-10 11 1 7 8 8 14 7 2-6 1-12-4-18Zm-629-43c12-3 16-9 16-22l-12 6-4 16Zm333-59 8-7-16-11-9 7 17 11Zm-27 313c-11 8-16 18-17 30 10-7 16-17 17-30Zm-227-289c15-2 17-15 23-25-5 3-11 2-14 8l-9 17Zm146-569c0-17-2-30-5-36-5 13-2 25-3 38l8-2Zm-162 564c-16 3-16 7-19 22 12-5 16-9 19-22Zm194-231c9-10 9-23 8-35-6 11-16 21-8 35Zm17 320c-10 0-9 14-19 13l5-11c-7-2-7 3-9 6l-8 11 18-4c7-2 11-7 13-15Zm-167 29 1 2h25c5 0 8-3 8-9-12 2-24-2-34 7Zm179 194c-13 9-19 21-17 33 12-7 13-20 17-33Zm142-1408 2 1 26-45-2-2c-9 9-15 20-21 30-3 5-7 10-5 16Zm273 39c-1 15-11 23-24 28 10 0 19-2 24-13l3-4c6-7 4-13-5-17-2 4-8 7-4 14l6-8ZM697 1670c14-4 20-11 20-24-7-1-11 3-16 6l-2 4-2 14Zm162 47-13-8c-6 5-3 10-1 14-9 1-10 2-11 11 13 2 18-8 25-17Zm208-83c-4 4-6 8-11 8-1-5 7-9-1-13-4-2-7-1-13 7l13 10c5 4 9 3 12 0l7-8-7-4Zm-239-350-14 9-3 6 1 32 4-5 7-28 5-14Zm87 426 11 9c4-3 14 2 15-10l-10-7-5 11c-6-6-11-9-17-3-1 1-4 0-7-1l-5 11c7 1 13 2 18-2v-8Zm-72-49c-11 15-9 30 4 37 10-17 9-20-2-30l-2-7Zm38-1-18-22c-8 12-3 29 11 37l7-15Zm-185-53h-4l-12 38c-1 2 1 4 1 7l22-10c4-2 6-6 4-11-4 2-7 4-9 8-3 5-5 3-8 0 4-10 8-21 6-32Zm178 99c-1-4 0-10-7-12l-6 8v-6c3-6 3-6-4-9l-6 11c-3 5-2 9 2 11l14 5-9 13 2 2c8-7 16-14 22-22l-1-2-7 1Zm-170 55c11 2 12 0 14-12-16-5-41-6-48-2 9 12 20 18 35 8l-1 6Zm269-452c-9 6-15 13-18 23l-8 28c-2 6-2 13 1 20 10-12 10-27 12-41l3 4c5-11 9-21 10-34Zm-25-332-19 20-18 22-6 8c-3 3-2 5 1 7l7-6 5 3 13-17-2-1-6 4c2-6 5-11 9-16 19-21 19-21 16-49l-1-5-2-4c-7 5-10 11-12 17-1 2 1 4 2 7l7-4c-4 9-9 16-15 24h-6l-4-2-2 5 13 1 9-11c2-3 4-8 11-3Zm333 750-8-6c-4-5-7-5-13-2l-16 5c-7 1-14 0-18-8-2-5-6-4-10-2 5 19 19 30 33 39l32-26Zm-500-397-2-2 3-7c3-10 8-20 10-30 2-11-1-22-3-33l-1-1c-4 4-6 9-8 14a9061 9061 0 0 0-23 70l-16 52c-4 12-7 23-9 35-3 19-7 38-14 56l-1 7 23-22-4 23 3 1c9-13 5-30 12-46l-2 24c8-6 12-13 6-22 3-5 6-9 4-15h-7l2-5 36-65 11-25v20h3c6-14 2-29 2-44l-8 16h-2l3-10 6-23c1-5-1-7-6-7l-18 39Zm232-607c17 12 32 7 50 0l-8 10 17-4v5l16-6-5 10 12-4 9-4h3l-6 7c9 5 15-5 23-4l-3 8 11-5c3-2 6-4 10-2l-6 7c10 4 15-6 24-7l-5 9c8 3 13-4 20-6l2 4c5-2 9-5 12-4 5 1 6 0 9-3 4-4 8-10 15-9l2-1 12-18c-10-2-6-15-15-18v6l-1 6h-2l-4-13-3 9-8-18-2 1 1 14c-7-4-3-17-14-16-2 6 4 10 1 16-12-16-12-16-15-16 8 14 8 14 8 20-6-6-9-14-18-19 2 8 8 12 8 19-8-4-8-15-20-15l6 9c2 3 5 5 4 10-13-15-13-15-23-15l10 12c-7-1-10-9-19-6l6 10c-7-1-9-9-17-7l1 4v3l-10 4-9-6c-26 7-52 13-79 23Zm-97 570c-7 0-10 4-11 11l-5 21-19 46-3 3v-7l8-21c8-16 12-32 15-49 1-3 0-7-1-10-4-5-5-11-5-18-3 3-7 7-8 10l-12 41c-7 30-18 59-29 87l-6 17-10 23c-1 3-2 6-6 6v-56h2a133274 133274 0 0 0 4 27l5-16-1-6c-3-3-1-6-1-9 4-12 3-24 10-34l17-67-1-4c-7 21-11 43-23 61 4-16 9-32 12-49 3-9 2-18 2-28 1-9 5-19 8-28 5-7 7-15 10-23l-2-1-8 24c-6 7-12 14-12 25l-2 6c-8 15-11 32-15 49l-13 39a888 888 0 0 1-26 67c-5 8-11 16-12 26l-1 4c-7 4-9 11-12 17l-32 53-28 46c-4 7-6 15-9 24 11-1 15-11 24-16-3 8-7 14-4 22 11-8 9-21 14-33l1 12c6-5 8-11 9-18l2-12h1l2 10c6-5 9-11 9-19 0-7 0-14 3-21l1 17c7-8 12-17 12-26 15-9 13-24 16-38l3 5c10-9 6-20 8-31l7 16c-2 5-7 12-2 20 5-8 8-15 8-24l2-28 2-12c3 3 4 6 4 9l-3 19c0 5 0 11 7 13l-3 9c-12 23-23 47-37 69-7 11-11 23-18 35l-22 35-9 14 1 2c8-3 17-4 21-14 0-2 3-4 5-6l15-14c6-5 8-13 8-22l-11 15c-3 5-5 11-15 12 11-16 21-31 33-45l-4 23c9-8 11-11 12-20 1-5-1-10 4-15l1 13c6-8 12-15 13-25l3-8c5 3 5-2 6-4l6-18 16-30c0-2 2-3 4-5 0 6-2 10-3 15s-3 10 0 15c7-11 12-26 14-37 1-9 3-18 7-27 1 13-8 25 2 36-16 43-40 82-62 124l10-5 27-15 9-6c3-2 5-5 3-9-6 2-6 11-16 9l8-10c8-8 13-18 12-30-1-4-1-8 2-12l3 16c13-14 18-25 15-36l-6 6c0-11 6-16 12-22l-1 24h2l5-10 2-18 2-19h2v24c9-11 16-21 15-36l-6 2 12-22c8-2 8-9 5-23l-6 7c-2 2-3 5-8 5 18-29 34-57 40-89-6-3-9-1-11 3l-9 15-3 4-2-1c3-7 7-15 9-23 1-2 3-5 2-7 0-5-2-9-3-14-4 5-6 9-7 14a428 428 0 0 1-30 81c-8 6-10 14-12 23l-2 17-4 6-2-1c1-16 6-32 8-49 6-1 7-6 7-11l-2-1-5 12-6 4 3-8c5-13 13-25 13-41l2-3c5-1 4-5 5-8l13-42c7 3 7 3 12-3l9-8 9-26-30 37Zm-116 977c6-5 6-5 0-11l-10 7c2 6 7 3 10 4-1 4-4 9-4 13l3 13-1 1-9-17c-13 4-11 6-8 13 2 7 6 13 9 19v7l-14-23c-6 6-6 12-3 18 1 3 4 6 0 10l-7-9-5 24-8-13c-5 5-5 5-2 13-9 1-13 7-16 15-2 6-6 11-9 17-7-6-9-6-13-1l-11 14c5 4 11 4 12 10l2 2c11 4 23 5 32-3 11-9 20-19 30-29 7-8 11-17 16-25 6-10 10-21 14-31l19-45 10-25c5-14 9-29 15-43 1-4 3-9 8-12l-11 43c8-3 6-11 10-14l2 6 11-7c-4 10-18 13-17 26 7-1 8-12 17-8-8 5-9 13-11 21h4v1c-7 6-11 16-15 26l9-2-8 6c-6 5-10 12-12 19-4 13-7 26-19 34v3c5 1 9-2 13-4 10-4 10-15 16-23v10c20-15 26-37 34-59l14-41 18-49 2-8c-4 2-8 5-9 8l-17 54-2 6-2-1c0-19 11-35 14-55l-8 6c6-10 17-17 15-32l-24 20c-7 6-12 13-14 23l-3 5c-1-4 0-7 1-11l9-26 2-16c6-7 16-15 12-28l7-10c3-5 4-4 7-5l9-7 10-10c5-5 7-11 8-19-13 8-20 20-33 27 9-14 12-25 10-29l10-21 2-1 1 6 5-1c-6 7-12 16-12 28 13-12 26-21 28-40l-14 10 8-11c8-6 8-15 10-26l-15 14c-1-12 1-22 5-32 2-7 5-14 5-21 1-4 1-7 4-10 3-5 5-9 0-14 7-5 11-12 11-19 1-6 2-12 7-17l-8-3-4 8c-3 7-6 13-13 17-3 2-5 7-7 12l-12 28-4 7-3-1 4-15c-6 8-9 15-15 20-4 3-8 10-3 17l7-2-10 36c6-5 5-13 12-18l-1 8-8 21c-1 6-3 11-6 17-4 11-11 22-9 35v-1l-4 4c-5 10-10 21-11 33 0 6-3 9-8 12-1-6 3-13-3-18-10 13 1 24 1 36-7-1-4-8-8-11h-7c2-9 5-18-3-27l-4 12v12c-3 12-4 23 1 34 1 3 3 7 0 12l-7-13c-7 10-6 14 1 25 2 3 2 5-1 8h-10c2 4 2 6 4 7l5 1c-1 3-3 6-2 8 1 4-2 5-5 6v-2c0-2-1-5-5-4l-4 4 6 3c-4 4-5 7-1 12 2 1 2 5 3 8l-1 1c-4-3-8-5-12-1-3 8 7 14 2 23-3-5-5-11-11-9Zm236-1612-13 14-30 33-7 11 19 2 5-1 47-14c7-3 15-6 20-13h2l2 5c10-2 5-13 12-18l1 14c11-5 4-15 7-22 7 3 3 10 6 15 6-5-3-13 5-17l3 14h2l4-18 2 1 2 15c11-4 4-15 9-22 3 6 4 11 2 18 10-4 5-13 9-21l3 8 1 9c8-6 6-15 6-24 9 7 4 15 3 22 13-3 7-14 11-22 4 7 2 14 1 20 8-1 9-1 14-23 3 3 7 6 8 10 2 5-1 9-2 15 9-1 5-10 13-13l-4 15 30 16-1-12c-1-6-3-13-6-19-8-16-19-29-37-34-14-3-28-7-43-9-13-3-15-3-15-17-1-7-5-9-11-6l-19 15 1 2c7-3 15-7 21 2l-5 1 8 7-23-5-1 2 10 4 10 5-1 2-22-4v1l12 6c-10 0-18 0-27-2l-3-2-5 2c8 3 16 3 23 10l-22-1v1l12 6v2c-6-1-11-3-16-2s-10-6-16-1c5 3 11 3 16 8l-11-1c-10-2-16 3-22 10Zm-64 995 7-14-8-12c-9 10-14 21-24 28l13-20-6-7-11 15c0-5 2-10 5-14s3-8 0-12l-4-1-4 5c4-13 4-13-4-20l-12 23-2-1 2-6 5-14c1-4 0-7-5-8l-6 9-2-1 3-13-2-1-5 3c-4 7 0 14 3 21l3 7c-9 0-7-9-12-12-8 8-6 16 0 25-11-4-10-14-15-20l-5 6v-5c4-10-1-17-6-25-4 2-10 1-8 9l11-5-3 7c-5 6-3 12 0 17 2 4 4 2 6 2-2 9 1 17 7 24-7 2-7-6-12-7l-6 9 4 5c8 6 9 7 4 16l-12 21v3l7 5 9-17c3-5 4-12 12-14l-7 14c-3 3-4 7 1 10l7-12c3-4 3-9 8-11 2 8-8 13-3 22 11-11 14-26 24-39 1 10-6 16-9 22l-12 21 6 6c8-3 5-8 4-14 6 4 8 0 10-4l6-11 5-4-1 5-8 15c-2 4-4 7 2 10 5-3 3-12 10-13 1 10 2 12 11 16l4-11 7 6c2 3 5 2 8 1 1 8 1 8 8 8l-8-8c-1-2-4-5 0-8l19 18c12-3-1-10 5-14l13 7 9-11c3 8 14 6 13 16l23-8c4-1 7-3 4-9l-10 7c2-8 14-14 4-22-8 2-5 10-7 18-3-9-7-5-12-3l5-6c3-4 0-9-2-9-6 0-1-4-4-6l-5 2c1-5 6-11-1-15-6 6-6 8 2 15-1 4-3 3-5 1l-6-6c-5 3-6 9-14 10l8-10c5-6 5-8-3-14-4 7-7 13-14 17l3-8c3-5 2-8-2-11-6 5-8 13-17 18 3-7 9-11 3-17l-9 8Zm-343 601-4 8-3 40 1 6 5-24c3-15 4-18 11-22-7 23-14 45-11 71l-8-16c0 10-2 17-1 25 0 13 7 24 18 31 6 5 14 7 21 10 5 3 10 2 14-1l7-5c-4-6-3-10 9-20 0 5-5 8-4 15 14-8 18-22 25-34l-6-8-12 6c4-5 9-9 15-13 5-3 7-8 7-14-7 0-9 5-11 10h-5l-6 1c10-9 10-9 8-16l-28 19c5-10 20-12 20-28l-14 8c3-5 7-7 10-10 5-3 7-8 4-14-7 0-8 6-10 10l-13-1c10-4 12-10 10-18l-13 3c5-5 6-10 4-18l-18 10c6-8 17-10 21-22l-17 7c7-9 20-11 18-25l-34 23c6-11 4-23 6-35 1-3 1-6-4-7 4-2 8-6 6-11-2-4 1-7 1-11-6 6-7 14-7 22-4 4-4 9-5 15l-5 37-3-4 3-8h-2v8Zm222-1129-3 4-24 53-7 22c-4-4-4-4-4-7l5-13 13-32 8-20c-15 15-38 72-40 97l6-9c2-3 2-6 7-7l-14 47 5 6c3-23 6-31 13-38l2 4 8-5c3-1 7 0 10 1l4-5c-1 8-3 16 6 23l6-10-12-28-6 5c0-16 7-28 12-41l2 1-7 28c7 6 7 18 15 24 3-3 3-6 1-10l-3-10c-1-2-3-5 0-7l9 11 2-12c0-4-2-7-3-11l1-7 7 5 6-20c9-17 14-36 25-52 4-5 4-10 2-16-5 1-5 10-12 7 2-9 14-13 10-24l-21 27c-3-10 7-13 6-20-5 8-10 17-23 13l5-14c-9 11-18 21-23 35l7-5 1 6-2 4Zm17 624 6-13c-15-2-15 10-20 17 7 6 10-2 14-4v6l47-8 9-16-2-2c-6-1-7 3-9 7-4 8-4 8-11 8 1-5 7-8 6-15l-6 4-5 8h-3l3-9c-9-2-14 0-19 7-2 4-4 9-10 10Zm34 377 10-11c7-7 12-14 12-26-12 12-27 19-28 39l6-2-2 3c-14 9-15 25-22 39l4-1 26-24c5-5 8-18 7-26l-13 9Zm-30-559c2 1 4 2 3 5l-3 9c8-2 14-4 17-10l7-12 5-4c3 1 2 5 1 7l-4 5-3 5c11 1 19-6 21-19l-9-5-24 12-11 7c-10 4-20 8-20 22 8-2 10-2 13-8l7-14Zm220 98h5c5-1 9-5 11-12l-28-12-13 12h7l7-5h8l-10 12 13 5Zm-160-434c-2-8-2-18-7-27-11 12 0 21 2 31l5-4c-2 8 0 17-6 25-1 2-2 6 1 9l9-11c6-7 1-14 0-21l-4-2ZM824 2294l6-7 9-23c3-6 5-13 5-20 5-5 5-5 3-10l-3 10-20 50c-4 7-7 13-8 21 4-7 9-13 8-21Zm-90 2 16-6 10-4c-2-8-1-14 3-20l2 5c5-6 10-11 13-17l20-45 30-76 18-50 18-49v1l5-1-10 37c5-3 6-7 7-10l2-9 14-34 32-81c1-4 3-7 8-5l28-65c9-22 22-43 30-65l-9 10c-2 2-3 8-8 8 2-11 19-33 31-42 3 3-6 7 1 10l12-13 2 2c-7 13-18 24-23 39 7 0 9-4 11-8l16-22 16-18v4l-2 3c-10 11-19 23-26 37 0 2-3 4-6 5-9 4-13 12-15 22l9-11c2-3 5-7 8-7 6-1 9-5 12-9l17-30 3-4c7 0 9-6 13-9l3-3 2 2c-11 12-21 25-28 41l25-27 15-18c3-3 6-7 8-7 7 0 10-6 16-9l15-10 16-12-1-2-9 6-7-5c-9 2-6 10-10 15l-5-9c-2-3-4-4-8-3l1-6c-5 4-5 4-3 6-1 4 0 7 3 9l1 6-2 1-11-12-8 6 6 10c-6 2-7-5-12-5-2 5-7 7-12 7 2-3 2-7-3-8l-5 4c-4 3-3 5 3 7l-1 7-4-2c-3-4-7-6-13-5-3 1-6-2-11-4l-4 10-6-7c-7 3-3 9-5 15l-9-14-18 21c0-6 8-10 1-16l-1 6-16 16-7-12c-11 5 0 11-3 16l-8-5-11 11-20-28c-2-4-5-4-9-2l6 9 9 12c1 3 2 7 1 8l-13 14 2 7c5-2 7-10 16-10-5 10-18 13-19 24-3 1-5 1-7 3-2 3-3 7 0 10h7c-9 12-22 19-28 32-9 1-13 10-20 15-6 6-11 14-19 19a3567 3567 0 0 1 31-34c2-4 4-6-2-9-15 9-26 21-31 39l-2 3c-9 13-18 27-21 43l-3 4c-6 8-16 11-24 17v1c4-6 2-10-2-14 6-8 13-14 16-22 3-11 10-17 17-25l13-12 2-7-10 6c6-10 17-16 22-29l-29 21 6-8c3-3 5-7 6-11l-3-3c6-7 11-16 19-20l19-17c2-1 2-4 3-6l-1-2-18 14-1-2 25-23c2-2 4-4 4-7l-8 3 8-10c2-4 6-7 9-10l-1-1-19 14-1-1 10-12-10-11c-2-2-5-4-1-7 0 0 4 1 5 3l11 12 4-6c-4-9-10-14-20-11h-7l-6 3c3 8 12 12 14 21-10-4-14-12-21-18l-10 6 16 19c-5 2-7-1-9-3l-10-11h-5v5l5 7c3 3 6 7 6 13l-12-12-9 5c3 8 12 12 13 21l-14-7c2-5 0-7-4-9-13 8-24 19-24 26l20-12-20 20c7-3 12-9 20-10l-34 28 2 2 15-9c-5 10-16 11-18 22l9-3c-8 9-19 14-18 27l13-6-17 15c-12 9-12 9-13 16l11-6 1 1-11 12 8 1v-1c-6 6-12 11-13 21l8-4-15 17c2 9-11 12-8 21h6v-1l-6 7c-7 6-11 14-14 22l4 1-10 16c-6-3-8 3-12 6-4 2-8 5-7 12l27-21v2a6499 6499 0 0 1-31 29c-7-1-8 5-10 10l-6 14c-8 17-10 36-12 55-2 7 2 13 7 19l10 12c5 7 12 9 20 10 1 1 2-1 2-2l10-8c4-3 6-7 5-13-9 5-14 12-15 22-4-2-5-5-4-9l3-12a9485 9485 0 0 1-14 7c1-3 3-6 3-10l1-11c-8 2-6 10-11 15l-11-10c-5-5-4-7 0-12l5-8c-7-2-7-3-5-6l3-3c7-7 7-7 0-15 12-14 12-14 9-25 7-2 8-11 16-14 7-2 12-8 18-12-8 11-22 17-24 34l13-8c-6 10-18 15-17 29l12-11c4 3-2 5-3 8l-4 11 9-3c-6 8-15 13-13 24 9-3 8-13 14-18l-3 16c-2 5-4 11-1 18l12-9-3 14c13-9 15-13 16-26h-2l-4 1 5-7 6-7c2-4 5-7 9-8 8-3 12-10 11-18-10 6-17 17-29 21l26-25c-2-6-7-4-13-3l9-7 8-14-3-4 7-8c4-5 7-9 6-16l-7 3c6-9 18-14 19-27l-6 1c6-7 11-14 17-18 6-3 11-7 15-11l10-10 1 7-25 58-25 57-16 47c-9 28-18 56-23 85-2 11-2 23 4 33 9 15 21 23 39 25l18 1-4 7h-10c-4 0-5 3-6 6l-4 10 9-3-5-7Zm133-488c1-3 4-6 0-11l-4 11h4l-1 4h1l4-5-1-1-3 2Zm458-1521c-10 9-17 21-24 33l-16 22c-2 3-5 3-10 4 1-3 1-7 3-9 15-21 27-45 45-64 11-12 20-26 29-39-4 0-7 4-10 6l-16 17c-4 4-10 6-9 13 1 1-1 2-2 3l-20 21-5 3c1-8 6-11 9-16a109 109 0 0 0-25 18c3 8-4 10-8 14l-7 8-43 51-4 4-18 29-3 4h1c-4 3-9 6-12 10l-21 27c-11 12-18 26-22 42l6-6 7-7-2 5-15 29c-4 6-7 13-3 23l8-20 11-18 12-16 2 1-11 19-10 19c6 6 11-2 16-1l-9 16 14 1-6 11 2 8c0 6 2 10 8 10 15 2 29 5 42-3 3-2 7-3 11 1l-14 13 19-4 7 1c2 3 0 5-3 7l-2 3c10-2 18-6 27-10 3-2 6-3 8 3 8-2 14-8 20-14 4-4 7-6 12 1 3-3 6-5 8-9 4-5 8-7 14-2l13-12 4 6 15-1 16-2c-3 8-10 7-15 10-4 3-10 4-17 6 4 3 7 1 9 0 19-8 33 1 46 12 4 3 7 8 6 13 0 3 0 6 2 9l6-21 13-3c9-2 14 1 14 11l-9 6 3 3 3 1c-4 8-10 14-18 19l-19 16 17-3 1 1-20 8v1l15 3v2l-20 8 6-7c-11 1-19 5-26 11 18 3 36-2 54-1-13 1-26 4-39 9-1 1-4 2-5 1-7-2-12 2-17 6l41 3v2l-8 2c-4 1-9 0-11 6-1 2-5 2-7 2-9 2-18 4-26 9 13 1 26-3 38 4l-35 1-3 9 10 5-24 3c2 5 3 6 6 7s6 1 8 4l-11 2-6 13 8 7-9 3c-3 11 6 13 12 18h-6l-8 8c-1 5 3 9 8 13l-1 1-15-3 2 9c2 5 4 10-1 15l-2 6-11-5v10c-4 2-8 4-11 4-2-1-5-4-6-7l-4-17c-4 10-2 20-4 32l-7-12-3 14-2 1-10-16-5 25-7 2-2-6-9 19-5-7-22 29-2-1c6-12 17-22 21-37-9 3-12 10-17 17l-4-5-19 21-1-1c6-9 14-18 14-30l-5 7-12 18c-4 5-10 10-10 18-1 3-4 5-8 9-1-7 1-10 3-13l15-21 7-14h-12l5-8-4 2-44 42-8 5 2-4 24-25c3-3 6-7 7-14-3 2-5 2-6 4l-37 34h-4l4-5 18-17 7-7-6-6c-11 8-18 24-37 19l16-12c-5-1-10-5-14-1l-5-2c-1-2 0-5 1-8-4-1-7 2-8 5-4 10-10 19-10 30h1l-4 10-2-1 5-28c-8 10-8 22-9 33-1 2 1 4 3 5l15 7 7 3c-10 2-19-1-26-7-3-2-4-6-5-10l2-3 5-29c-6 6-8 17-7 32-3 0-5-1-4-4l1-20c-5 5-8 13-11 32 12 5 24 11 36 14 13 4 25-2 38-3-15 7-30 13-47 6-10-5-21-8-32-12l6-29-2-1-4 3-3 19-3 11c-3-11-1-21 1-31-7-1-9 0-10 6l-5 38c-2-6-3-10-2-14l2-17-2-8 3-5c-4 1-4 1-3 5-7 8-6 18-7 26-3 28 1 24 20 24l57-2h10c-4 3-5 3-15 4l-17 2-17 1-17 2 18 5c-16 2-37-1-45-5l3-41c-7 0-8 4-8 8l-3 34c-5-3-4-8-4-12l2-21c-7 0-10 4-10 9l-1 21v14h-2l-3-20c-11 11-6 24-6 38-8-9-3-19-6-28-8 6-5 15-5 21l1 22-3-4-2-18c-1-4 0-9-9-8 8-8 9-15 9-23 0-5 3-7 6-10 2-2 6-4 3-10-13 13-29 22-39 38 8-1 10-8 16-12 4 6 4 13 5 19l1 25-3 15a16806 16806 0 0 0 0 0l7-4 6 8-10 14 2 1 13-14 2 8 1 13c0 7 1 8 8 8 15 0 29-1 44-5 4-1 8-2 13-1l-7 3c-14 5-29 8-45 9-5 0-10 0-14 6-5-6-10-10-18-7l-1 12c-9-7 0-16-6-23-13 7-8 20-9 32-7-4-3-10-4-14l-1-15c-4 0-5 3-7 5-5 5-7 11-14 13-2 0-4 4-4 7 0 8 1 17 4 25l4-8c6 4 1 11 5 15 7-6 7-19 21-19a1061 1061 0 0 0-8 15c4-2 5-5 3-9 5 1 9 0 8 7 0 3 3 6 5 10l-2 8c2 3 8 1 6 6l-5 11v12c-13-5-3-15-7-21-10 3-7 12-8 20-8-4-4-11-8-17l-5 12-5-12-3 5c0 3 0 5-4 6-1 0-3 1-3 3l-21 48-9 24 8 13c5-5 5-5-3-10l5-15c6-17 14-32 24-47l-3 10c5 4 6 10 5 19l-7-12c-9 12-3 23 0 34-6 1-6 1-10-11-4 3-6 8-5 12 2 7 3 14 7 20 3 5 3 9 1 14l-3 12c-9-2-14-5-14-15 0-4-3-9-5-15-5 5-4 10-6 15l7-1v14l6 15c-8 2-10 8-10 14l2 11h2l7-20h2c2 7-4 13-1 20 7-4 10-12 13-18 9-17 18-33 24-52 5-15 13-29 20-44 2-4 5-8 11-10l-2 6-2 6 8 2 1 15-7-5 3 17c9 1 17-2 24-5l34-15 11-4c-11 13-57 31-76 31-6 7 3 14-1 23l-8-10c-4 9-1 16 2 24l7-10c0 10-5 17-2 26 9-6 14-16 22-22l14 28-6 20c-5-4-2-8-1-11 4-9 3-10-5-18-7 8 4 16 0 24l-7-2c-2 4-4 9-2 14l2 5c1 2 2 5 1 7l-8 17-6-4-1 3c0 3 1 6 4 7l5-1 11-7 29-27h1c16-10 21-22 27-38l-21 11c-6 2-13 6-22 1l28-9 25-13c-3 13-6 25-14 36 9 2 15-5 23-4l-19 10c-6 2-12 3-16 9l-4 2c-9-1-12 6-13 13l-4 21-4 12-4-7-5 38-5-6-1 1c-5 10-6 20-5 30l-2 10-9 24c-3-6 1-11 1-17l4-19c-8 9-9 18-9 27l-1 25-3 6c-6-5-2-10-2-15l1-15c-7 4-10 9-10 15v31l-1 6-8 17-17 31-19 30-3 9 29-15 11-33c4-11 6-23 16-32l-1 6-11 25-12 31c-1 4 0 7 4 10 2-7 3-13 6-19 2-6 3-13 12-17l-2 7c-3 9-7 17-9 26-2 6-1 6 6 9l2-7 8-22c0-3 2-4 4-6l2 1c-1 3-1 7-3 10-1 6-4 11-6 17-3 11-1 14 10 18 3 4 3 4 10 6l1-6 3-7c5 6 0 10 0 16l24 12c4-11 6-22 15-30l-6 19-2 10c-2 5 0 7 5 8 9 6 17 13 27 18l75 36c6 2 11 6 17 9 4 3 4 6 1 10l-15 16h12c7 0 9 2 8 9l-1 9 1 2c6 1 12-1 18-3 4-2 8-2 13-1 6 1 13-1 22-2l4 6 3 10c8 1 15 1 20-4 8 5 8 5 17 2 8-3 8-3 14 2 11-5 17-14 26-21-5 12-16 19-27 28l7 3c5 0 9-1 14-3 3 0 5-3 8-3 14-3 22-12 29-24l3-5h1c-1 5-1 8-5 13l-9 14c-2 2-4 6 0 8 3 2 6 1 8-3l17-18-6 16 7-2 10-4c3-1 6-5 9-1 2 2 0 6 0 11l5-2 26-14c4-3 8-3 11 2-8 9-11 20-15 31-2 6-6 12-10 17-9 10-22 15-34 21-1 1-4 2-5 1-7-2-12 1-18 3l-24 7c-11 3-23 0-34-3l-4-2c-4-3-3-7 1-8l15-4-21-4c-5-1-9-2-13-5-8-4-15-9-23-12-11-5-16-15-20-26l-3-12h-22c0 8-5 15-12 20-10 9-20 18-31 25-15 9-26 20-35 34l-15 22-3 3c-8 2-10 9-13 15-12 23-17 47-24 71l-11 34-1 4c2 9-5 16-8 24l-24 74-17 60-7 34c-2 10-4 19-8 29l-30 83-8 25-9 24c-4 9-8 18-14 26-13 17-27 32-50 36-5 1-10 4-17 3-1-1-4 2-6 4-11 17-26 31-41 45-9 9-20 12-32 9-9-3-18-5-25-12-3-5-10-7-16-8-2-1-6 1-7 3-4 5-8 5-13 3-11-4-23-8-33-14-17-10-23-27-21-46l7-63 12-54 13-46-2-8-6-8c-7-6-8-14-8-22a236 236 0 0 1 22-74l25-52 14-31 23-45 29-59 20-45 25-48 5-12h-12l-45 5h-29c-9-1-17-2-25-5-4-1-8-5-11-9-4-3-7-7-9-11-1-2-2-5-1-6s3-3 5-3l27 1 54 6h19c16 0 31-2 47-3 8-1 15-2 18-11l-5-5-8 9-1-1 5-14-2-1-6 9c-5-5-5-11-6-17-1-26 3-52 15-76l2-10c1-3 2-6 6-5 3 1 7 3 6 7-1 6-2 13-5 19l-2-7c-8 21-18 41-9 65 7-7 4-16 4-25l8 5c5-9-4-17-1-26l6 14 6-20c0-2 0-6-2-7-3-4-3-7-1-11 2-8 3-16 8-23 0 8 1 16 7 23 4-7 8-14 4-22-1-2 0-5 3-4l6 13c8-10 8-13 0-24l-18 8c-17 8-34 16-50 26-4 3-9 4-6 12-14 1-24 7-35 13l-70 31-4 1c-5 2-10 6-16 6-4 1-9-3-13-4l-3-13c-2-4-1-9 3-10 8-1 10-7 12-14l15-37c6-16 11-32 15-49 2-9 2-20 3-30a668 668 0 0 1 13-63c7-15 8-32 12-49l12-40 5-14 13-50 16-49c2-6 6-11 9-17a965 965 0 0 0 17-45c2-18 9-34 16-50 9-19 20-37 31-55 8-12 14-26 23-38 13-18 23-38 39-52l7-8h-10c-9 0-13-6-10-14l7-16 4-6c8-19 22-34 37-48 17-15 35-29 53-42l22-14 58-35 12-7-1-4 6-13 4-5 6-4c-2-4-5-7-5-10-1-2 2-5 3-8-1-4-4-7-4-10 0-4 4-6 6-9l6-9-7-3-49-5c-16-2-32-5-46-13-3-2-7-2-10-3h-5c-5-1-12 0-15-7s3-11 6-15a749 749 0 0 1 95-97c4-3 7-8 7-13 1-7 4-14 3-21s1-11 8-13c-2-20 10-34 19-48s19-26 25-42c6-19 20-33 32-48l33-39c9-13 16-27 24-40 15-24 32-46 55-63l40-34 38-44 21-24 10-14c9-2 12 1 9 11l-4 12 12 3 21-24-4 11-20 37-11 20v6l29-32c4 2 6 4 4 8l-5 7c-4 5-6 10-4 17 1 4 0 9-2 13-2 6-5 12-6 20l8-8 18-21c3-4 6-9 13-9l4-4 6-4c-2 10-3 20-7 27-6 11-15 21-22 32l-10 13-2 3c-20 21-32 48-50 70l-6 8-2-2 8-16c6-8 10-16 14-25 3-11 11-20 18-29l21-25 3-8c3-2 5-5 6-8l-2-1-4 9-4 2-46 51c-5 5-8 13-12 19l-3 5c-10 6-14 16-21 24l-5 9-2-1 14-24 7-13c6-14 15-28 26-39l14-15 4-7 13-35v-5c-11 14-22 27-28 43l-7 9-12 17-6 8c-1-4 3-8-2-11l5-18 5-11c9-16 14-33 17-51l2-3c5-7 10-19 11-29l-39 51-14 17c-3 3-5 8-7 12l-6 5ZM1685 1616l2 2 2-5-1-1-3 4Zm-138 15-1-2-5 4 1 1 5-3Zm38-3 2 1 3-3-1-2-4 4Zm30-7c-6 1-7 3-7 8l4-3 3-5Zm-168 80 7-8c-3 1-10-1-7 8Zm-9 2 2-1c1-3 1-7-4-10l2 11Zm328-101-2-2-5 11 3 1 4-10Zm14 8 2 2 10-10-2-1-10 9Zm30-1c7-2 8-4 7-10l-7 10Zm78-20-5 14c6-4 8-7 5-14Zm-260 32c-8 1-8 1-8 9l8-9Zm40 1c8 0 8 0 9-8-5 0-8 2-9 8Zm-17 2c7 1 9-3 12-8-7-2-9 2-12 8Zm-221 63c-6 7-5 11 3 16l-3-16Zm452-94c-10-2-10-2-11 13l11-13Zm-137 23c5-3 10-7 9-15-8 2-6 10-9 15Zm-112 9c9 1 9 1 12-7-6-2-10 1-12 7Zm267-36c-5 5-7 10-6 17l5-5c2-3 2-7 1-12Zm-194 20c-9-1-10 6-14 11 9 0 10-1 14-11Zm61 5c7-3 12-7 14-14-12-2-9 9-14 14Zm83-18c-9 0-9 0-10 12 8-2 9-3 10-12Zm-454 114c8 2 11 2 18-2-5-8-5-8-12-2l-6 4Zm426-101c12-1 13-3 12-13-9-1-9 7-12 13Zm35-15-3 14 9-5c2-1 3-3 3-5 0-6-4-6-9-4Zm-132 13c-11 0-11 0-17 13 11 2 11-8 17-13Zm84-8c-10-1-12 1-17 13 10 0 13-2 17-13Zm-67 5c-10 0-14 3-18 14 12 1 16-2 18-14Zm-287 80 3 4 2-8-2-1-3 5c-3-3-7-4-12-2 4 4 8 5 12 2Zm156-1109c-3-6-6-12-14-13l-3-2c-4-7-11-7-18-7l-14-1-6-3c9-6 19 1 28-1-1-9-8-9-13-11l-20-3c8-8 17 2 25-5-16-5-31-6-46-8h44c-14-10-29-8-43-12h21v-2l-19-7v-2h10c-3-7-9-4-12-6l-3-9-1-8 1-3c0-8-16-28-24-29-9 0-13-3-15-11l-6-8c6-3 11-2 12 4 2 9 7 11 15 10 4 0 7 2 10 5l16 20c1 2 3 6 2 9-1 5 1 8 4 11l15 16c1 1 3 3 5 3 7 0 11 3 15 8l7 8c4 4 8 8 2 13l11 17 7 6c7 6 14 12 18 21 3 6 4 10-1 16l5 6 6 13 3 7c5 5 7 11 6 18l1 6c8 12 12 26 18 39l4 7c2 3 3 6 1 10-3 3-2 7 1 10l14 16c6 5 8 12 11 19 0 3-1 5-4 7l-6 3 6 17c4 12 3 14-10 18l12 37c4 15 15 24 21 37l14 29 5 12c4 11 8 23 10 35 4 16 10 32 10 49 0 2 3 5 5 7l5 5c4 9 8 17 10 26 5 23 9 47 8 71l-4 85c-3 43-11 85-24 127l-5 27c-6 25-14 50-26 73l-29 57c-5 9-11 18-20 24-4 3-6 3-8 1-9 15-17 31-27 46s-23 28-33 44c-10 15-26 24-40 38h9l54-9 31-2c27-2 53-8 79-12 18-3 35-5 53-5 22 0 45-3 67-5l45-3c8-1 12 3 15 9 2 6 2 12-3 17-5 6-10 10-20 9-11-2-22 0-33 0l-76 7-24 2-112 11c-27 2-54 6-80 12l-50 9-8 1h-6c-12 8-26 13-32 28-6 14-17 23-31 29l-13 2c-12 2-24 4-37 2l-10-4c-7-3-8-12-2-16 13-7 20-19 28-31l5-5c1 11-1 17-10 22-4 2-7 8-11 13 10 1 15-4 20-9l21-28 4-4-6 14c18-3 22-19 33-30l-7 15 1 1c5-3 11-5 16-9l12-16-5 17-11 4-22 17-2 3c8-2 15-7 23-4l3-1c24-13 47-27 62-50 1-2 3-5 6-3 4 2 3 5 1 7l-3 8 6-5c8-12 19-21 31-30 10-7 17-17 21-29 2-6 5-9 11-11 4-1 8-4 11-8 16-20 29-43 39-67l1-1c2 1 5 3 7 2l7-4 5-6 27-55c2-3 2-8 3-12l2-10 4 5c12-20 12-41 6-64 5 2 6 6 7 9 0 3 1 5 3 8 3-15 1-30-3-45l2-1 8 25c5-12 5-24 1-35-3-11-6-22-7-34l13 32c1-15-3-28-7-42 9 6 7 17 12 25 1-23-8-44-15-65 4 4 5 9 8 13l6 15 7 15c0-11-3-20-8-30 5 1 5 1 12 16l2-12c-4-2-6-4-6-9-1-8-4-15-6-23l-4-15 10 15 5 20 2-1c-1-6-1-13-7-18v-9l9 8c2-4 2-7 0-11l-12-36 2-1 12 25c5-11-2-20-3-30 0-10-5-19-9-29l2-1 11 22c7-15-2-28-4-42l6 7 1-9a3623 3623 0 0 0-3-51c-5-1-4-5-4-9l-6-25-2 9-4-5c-2-16-10-28-18-41-2-3-6-6-1-10l-1-4-7-12c7 1 7 7 12 11l-9-37c0-2-2-3-3-5l-29-29v-3c7 0 10 5 13 9l11 12c0-10-5-19-10-27a283 283 0 0 0-15-24l-9-7c-3-3-5-9-11-8l-4-3-14-19-2 1 11 7c3 2 6 8 12 3-6-10-15-15-23-22l2-2 24 16c0-5-2-10-3-12l-19-16 1-2 14 9-3-9c-2-8-1-11 8-13l4-1-7-15c-3-7-3-7 2-12l3-3 2-1c0-11-6-16-11-22l-18-19c-9-9-19-16-30-21 11 0 19 8 28 14l7-4c-4-7-4-15-11-18l-18-7c4-4 4-4 19 1-5-11-9-21-19-27-6-3-13-4-20-6-4-2-8-2-11-5l35 7 1-8-21-6v-2l14-1c-4-12-14-7-21-11l18-1c-2-3-3-6-5-7-10-9-10-9 0-18l-4-7v1Z" style="fill:#231f20;fill-rule:nonzero" transform="matrix(.055 0 0 .055 2 0)"/><path d="M1411 327c-9 9-15 20-18 32-6-3-6-6-5-10 5-11 12-21 20-30 3-5 8-9 12-13 3-3 6-5 11-5 2 8-7 12-6 21l7-8 19-18 10-13 5-8 1 3c-8 22-10 46-23 67l-5 11c8-1 13-3 17-9l8-9 7-3-14 29 6 6 6-4v3c-5 7-9 13-8 22l-3 4c-1-1-3-2-3-4l-1-9v-8l-10-1-7 5-7-4c-1-1-2-5-1-6 5-4 2-8 1-12l-7 4c-1-10 7-15 9-22l9-22-5 4c-10 12-20 23-25 38-1 3-2 5-6 4s-3-4-2-7l7-13c4-5 5-10 1-15ZM1651 768l3 5-15-5c-7-3-13-5-20-4-7 0-13-2-20-3h-1c-10-1-20-1-30-6 8-5 18-2 27-6-12-7-26-3-39-8 11-5 33 0 60 12l-23 2v1l22 5h2c10-7 17 3 26 5l8 2ZM1191 409l18-18c-5 18-18 28-27 42l-27 40c-4-4-2-6 0-9l28-44 9-11h-1ZM1475 404c-4-2-10 3-13-5l19-5c4-1 6 1 6 5 1 8-4 14-7 20-2 5-7 4-10 5l-19 6c-4 1-4 1-6-4l15-4c10-2 14-6 15-18ZM958 1114l-7 6 2-8c6-4 5-10 5-16 0-4 0-8 2-12 6 7 2 15 4 22 18 6 36 0 54 3l-8 2-39 3-5 1c-4 5-5 0-8-1ZM1218 397c2-16 37-66 55-78l-55 78ZM1621 735c-6 1-11 0-14 5h-3l-28-8c2-6 6-6 10-6 5 1 10 4 14-1 1-2 6 0 9 0 4 1 6 2 5 6l7 4ZM1137 942l2-3a4965 4965 0 0 1 32-30c11 1 17-7 25-11 3-2 7-5 12-6l-3 3-23 17c-3 3-7 6-12 5l-5 3-23 20-4 3-1-1ZM1080 1331c9-30 39-77 53-81l-1 4c-20 20-35 43-46 69l-6 8ZM1459 764c-14-2-25-15-41-6l-24-22c7-2 10 2 13 4 6 5 11 10 19 9 9 0 26 9 33 15ZM1464 683l5 6-1 1c-14-5-28-10-44-8v-3l4-2h6c14 3 28 2 42 1l16 3v2h-28ZM1065 976c-20 10-68 15-82 3 8-3 14 2 20 2l21 1 21-3 20-3ZM1045 1406l-1 6-8 15c-10 15-14 31-20 47v-7l14-39 8-17c1-2 2-6 7-5ZM1303 326c3 4 5 6 2 10l-37 44c9-19 24-35 35-54ZM1611 574c-2 4-4 2-7 2l-24-5-7 1 11 7v1l-20-1c1-11 3-13 12-13 10 0 20 2 29 6l6 3v-1ZM1000 1585c2-12 8-23 16-33l-4 12 1 1 2-5 3 2-7 27-4-5-7 1ZM1078 1407l-3 8c-11 20-17 41-21 63-1 5 1 11 1 17-3-1-4-4-3-7 0-9 1-19 3-28l15-45c1-3 2-6 8-8ZM1127 1298c-7 10-15 20-21 31-7 11-12 23-17 35 0-16 24-60 36-68l2 2ZM1187 943l2-7c20-14 36-33 51-52l3-2c-4 11-42 53-56 61ZM1618 1483c-1 19-20 60-31 66l1-6c13-18 22-38 28-59l2-1ZM952 1451c4-23 14-43 24-63l4-1c1 5-1 8-3 11l-17 35-6 18h-2ZM1019 1149c-15 14-38 22-49 19 4-6 11-4 16-6l16-7 17-6ZM1654 1464c11-17 19-35 22-55l1 6c-1 17-7 32-16 46l-5 5-2-2ZM971 1383c-2-18 10-32 17-48 0-2 3-3 5-6 2 6 0 10-2 13-10 12-16 26-20 41ZM1617 1450v5l1 5c8-12 6-27 11-40h2v8l-7 27c-1 4-5 7-6 11l-6 12 2-28h3ZM1356 280v6l-2 3-25 33c6-16 15-29 24-43l3 1ZM1325 287l6-5 9-11 2 2c-1 9-9 14-14 22-4 7-9 14-15 20l12-28ZM1229 1592c-3-8 6-56 12-67l2 6-7 26-7 35ZM1631 1100c10 10 12 50 5 68 3-22 2-44-5-68ZM1081 1441l-2 8-13 36-6 20c3-22 8-44 17-65l4 1ZM1037 1314c-13 18-31 33-34 59-3-8-2-14 1-18l27-41 4-2 2 2ZM1092 1610c-5-9 2-41 9-50 3 10-4 17-5 25l-4 25ZM1046 992c-14 5-40 5-53-2l6-1 47 3ZM1317 365c8-17 17-33 30-47 2 7-5 10-8 15l-10 17-10 16-2-1ZM1682 1433l9-50 1 2-3 40c-1 3-1 7-7 8ZM1085 1598c-7-2-6-5-6-8 0-19 5-43 12-53v7l-7 27c-1 8-4 17 1 27ZM1566 1012c-2-10-3-21-6-31l-9-28c3-1 4 2 5 4 5 12 14 40 10 55ZM1548 1584c-8 17-19 34-36 45 1-7 8-9 12-14l13-15 11-16ZM1135 1080c-17 9-49 15-58 10l58-10ZM1228 1473c-2-20 4-64 10-74v6l-8 42-2 26ZM1000 936h1c12 7 24 10 37 11l4 2c-12 1-24 3-35-3-4-3-7-5-7-10ZM1039 1532c5 9-1 16-1 25l-4 23c-4-16 1-32 5-48ZM1159 866c-8 15-21 25-37 32l1-3c11-7 21-16 29-26l5-5 2 2ZM1252 1607c-4-10-1-34 5-46 1 2 2 4 1 6l-3 18-3 22ZM1030 1469c-1 17-11 30-16 46l-2-1 13-44 3-2 2 1ZM1558 636c-15-3-29-3-42 5l-2-2c1-1 1-4 3-5 9-6 31-6 41 2ZM1016 1383c6-16 13-30 22-44l6-6 2 1-30 49ZM990 1012l-3 10c-4-10-4-17-3-25h2c3 10 10 12 19 11h8c-8 5-15 3-23 4ZM1508 557c8-9 23-11 37-7l-2 2c-8 1-16-1-22 6-2 2-8 0-13-1ZM1609 675c-15-7-30-5-46-4 5-5 9-6 21-5 9 0 19 1 25 9ZM1384 739c9-1 25 16 33 35l-16-18-17-17ZM1115 1345l-22 42c3-16 9-31 20-43l2 1ZM1129 1058l-5 3-49 15c-4 2-8 1-12 1l66-19ZM1252 1484c-4-15-1-29 3-44 3 15-4 30-3 44ZM1180 1338c7-18 12-36 24-52l1 1a119220 119220 0 0 1-25 51ZM1276 424l11-18 5-19 3 2c-2 6 2 14-4 20l-13 16-2-1ZM1264 1349c1-17 4-34 10-51 3 9-2 17-4 25-1 9-4 17-6 26ZM1027 1223l-17 11-18 9c-1 1-3-1-4-1l2-4 34-16 3 1ZM1114 1577l-6 37c-5-9-3-27 4-38l2 1ZM1518 697c15 3 31 5 45 16l-45-12v-4ZM1049 1594c-6-12-2-35 6-42l-6 42ZM1275 349c-1 7-14 26-23 31 5-11 12-20 19-30l4-1ZM973 1434c1-10 6-19 11-28 1-3 1-3 8-4l-17 33-2-1ZM1357 371c0 5-4 8-6 11-1 3-5 5-2 9 1 1 0 4-1 5-2 3-5 7-9 9 1-6 2-13 5-18 3-6 4-13 13-16ZM1190 1360c4-16 8-32 17-47-3 17-12 31-17 47ZM1608 1535l20-41c1 10-10 34-20 41ZM1651 869l6 1c10 10 19 21 22 35-8-13-16-26-28-36ZM1303 411l-19 28c1-9 14-33 20-38l1 8-2 2ZM1633 1430c5-17 3-33 3-52 7 13 5 39-3 52ZM1698 877l-30-26 4-2c7 3 24 21 26 28ZM1130 1568c1-22 7-37 17-44l-10 22-7 22ZM1659 1313c4 22 2 44-2 65l2-65ZM1179 1598l-17 48c3-17 7-34 14-49l3 1Z" style="fill:#231f20;fill-rule:nonzero" transform="matrix(.055 0 0 .055 2 0)"/><path d="M1020 1102c-10 3-20 4-30 2-3-1-6-2-7-6a67510 67510 0 0 0 37 4ZM1552 1040l-3-42c7 6 8 31 3 42ZM1064 1574l-6 37c-5-7-3-25 4-38l2 1ZM1435 737l-27-16-11-4c2-4 5-3 7-3 12 5 24 11 31 22v1ZM1284 1616l-2-4 2-34c7 8 3 14 3 19l-1 19h-2ZM1430 689c11-4 26 0 36 10l-36-10ZM1473 720c6-5 24 0 40 13l-40-13ZM1270 1508c-5-12-4-33 2-42l-2 42ZM1298 1388c-4-14-2-35 5-44l-5 44ZM1038 1373l-18 33c-1-10 7-28 16-34l2 1ZM1289 1321l-7 43c-3-15 0-29 4-43h3ZM1588 711c13-1 24 6 37 6-8 4-27 1-37-6ZM1588 815c-11-9-22-17-37-17 1-6 4-4 7-4 12 4 23 10 30 21ZM1478 1649l27-23c-9 12-20 23-32 34-4-7 3-8 5-11ZM950 1557l-1-2c-1-11 2-22 7-33 6 8 0 13-1 19l-5 16ZM1033 1207c-10 8-20 15-32 19l-1-2 2-5 31-12ZM1248 1323c1-18 8-33 18-46l-18 46ZM1722 932l-30-30c9 0 24 15 30 30ZM1127 1393c-2 7-8 13-12 19-5 7-8 14-12 22 1-11 15-35 24-41ZM974 1540c4-15 10-29 18-41 1 8-5 13-7 20l-9 21h-2ZM1467 658c6-5 19-7 30-4-6 3-24 6-30 4ZM971 1525c1-15 10-26 19-39 1 7-4 10-5 14l-6 13-5 13-3-1ZM1152 1606c1-22 6-40 12-46l-12 46ZM967 1144c12-3 22-2 34-4-10 8-25 10-34 4ZM1513 1568c-1-9 4-15 7-22l11-21c-4 15-10 29-18 43ZM1139 1629v33c-5-5-6-7-5-16 0-5-2-11 5-17ZM1038 1490c1 6 0 11-10 33-1-13 4-27 10-33ZM1710 1143c10 17 13 35 12 55-2-19-5-38-12-55ZM1032 965c-10 2-20 4-31 0 11-5 21-1 31 0ZM1351 1509c-1-11-5-21-1-34 3 8 4 23 1 34ZM1080 1053l42-12c-9 9-30 15-42 12ZM1408 706c11 0 24 10 27 19l-27-17v-2ZM1124 1438l-21 35c0-7 13-32 19-37l2 2ZM1249 514l-22 33c0-8 7-20 22-33ZM1695 1185c11 13 16 29 17 47-4-17-9-32-17-47ZM1619 1158c4 15 5 30-3 44 4-15 3-30 3-44ZM1572 1576l-23 32-2-1c5-13 16-22 24-32l1 1ZM1466 498c11-7 22-10 33-10v1l-30 11-3-2ZM1443 393c-18 5-18 5-28 14v-5c4-8 18-12 28-9ZM1221 530c4-12 10-22 19-31-6 11-11 22-19 31ZM1709 1351l-5 39c-5-6-3-23 5-39ZM1257 1250l-12 33c-5-8-2-15 12-33ZM1147 1328c0 6-8 19-20 33 4-13 12-23 20-33ZM979 1044c3-4 17-7 33-8-11 7-23 7-33 8ZM1369 241l-19 32c-1-9 8-24 19-32ZM1435 736c10-1 20 3 29 10h-4l-21-5-4-4v-1ZM1178 1395l-22 38-2-1 4-7 13-26c1-2 3-5 7-4ZM1562 785c13 4 24 8 33 18l-32-15-1-3ZM1128 1171c-10 5-21 9-32 12 4-6 17-10 32-12ZM1214 903c-8 11-25 24-31 26 1-4 22-22 31-26ZM1377 1658l-22 29c-1-7 10-22 22-29ZM992 1440c3-10 6-19 13-27 1 8-4 18-13 27ZM1651 768l-13-11 1-3c9 3 16 12 25 15l-1 2-12-3ZM1400 1614l22-31c-4 13-11 23-19 33l-3-2ZM1454 784c9 0 23 11 30 23l-30-23ZM1618 701c-10 2-19 0-28-5 10-3 18 4 28 5ZM1614 670c18 4 29 10 32 17l-16-8c-5-2-12-2-16-9ZM1499 594l-7 4-17 12h-5l2-5 9-6 17-7 1 2ZM1355 786c10-1 19 5 30 19l-30-19ZM1290 1675c-11 21-12 22-20 23 6-9 13-16 20-23ZM1123 1525c3-14 9-27 15-40 1 7-9 32-15 40ZM1129 908l20-20 1 1v4c-5 7-12 12-19 17l-2-2ZM1546 1547l17-30c0 8-10 26-15 31l-2-1ZM1547 623h-28l2-4 24 1 2 3ZM1628 848l-32-17c13 2 23 8 33 15l-1 2ZM1320 1407c-5-13-4-29 0-37 2 14-2 25 0 37ZM1077 876l27-5c-6 6-13 9-21 10-3 0-5-2-5-5h-1ZM1142 918v1l-23 22c6-13 16-22 23-23ZM1192 434c-3 9-8 17-15 24 0-11 10-16 15-24ZM1177 523c1-13 7-24 12-34-2 18-6 29-12 34ZM1168 997l-27 25c2-9 8-12 12-16 5-3 8-9 14-11l1 2ZM1478 582c7-8 15-10 23-14l1 2-11 8c-4 2-5 9-13 4ZM1394 1664c-3 9-13 21-20 26 1-6 12-20 20-26ZM1110 1494l15-36c1 8-6 24-15 36ZM1558 604c10-2 19 0 28 3v2l-28-3v-2ZM1601 851l7 2c8 8 15 16 18 27l-25-29ZM1000 1199c8-7 18-8 28-14-6 8-18 14-28 14ZM1679 1272c6 10 7 21 6 32l-8-31 2-1ZM1463 471c3-5 11-7 23-6-5 4-16 7-23 6ZM1575 654c11-4 20 0 32 1-6 3-22 2-32-1ZM1530 693c10-2 18 1 27 6l-2 2-25-5v-3ZM1597 793l-28-17c11 1 23 8 28 17ZM1220 932l19-26c0 9-8 20-19 26ZM1178 934c-7 9-14 13-21 19 2-9 11-17 21-19ZM1662 755c-8 0-16-1-23-7 6-2 13 0 23 7ZM1178 1644c6 7 0 12-1 18s-3 12-6 17l7-35ZM1066 1531c0-9-1-18 3-27 3 7 2 13-3 27ZM1206 1027c3-11 11-20 18-30l2 1-20 29ZM1614 891c9 8 14 17 17 28l-18-26 1-2ZM1529 534l-22 5 1-4c7-4 13-5 20-3l1 2ZM1104 1102l30-6c-6 6-16 8-30 8v-2ZM1235 483l-27 26c3-9 17-23 27-26ZM1319 922l3-28c4 8 3 20-3 28ZM1025 1284l-24 11 1-6c7-4 14-7 23-8v3ZM1203 1385c0-10 1-20 7-28h2l-9 28ZM1191 974l22-19c-4 10-13 19-20 21l-2-2ZM1270 981l-18 29c3-12 9-21 18-29ZM1181 1527c2-10 1-21 10-29l-10 29ZM1688 1227c5 10 7 20 7 32l-9-31 2-1ZM1512 807l-19-15 2-2c8 3 14 9 18 16l-1 1ZM1252 1090c1-11 6-21 11-30l2 1-13 29ZM1085 1030l27-4 1 3-28 5v-4ZM1181 1425c0 7-6 22-15 31l15-31ZM1407 799l-25-13c7-3 14 0 25 13ZM1281 841l3 2-8 26c0-10 2-19 5-28ZM1405 1579c-4 9-9 17-16 24 2-10 9-17 16-24ZM1318 1595c3 7 3 8 2 19-6-5-6-13-2-19ZM1166 958c-2 8-10 16-23 24l23-24ZM1306 356c0 9-6 14-10 20 2-7 3-15 10-20ZM1520 796c8 3 13 9 17 16l-19-13 2-3ZM999 1051c-7 4-12 8-21 6 6-5 13-6 21-6ZM1478 448l-19 5c0-7 10-10 19-5ZM1437 1573c-7 19-9 22-15 25 1-6 9-19 15-25ZM1169 518c-3-7-1-13 7-21-1 10-4 18-7 21ZM1244 854c-3 8-9 14-15 20 4-8 7-16 15-20ZM980 1481l-2 8-10 22c1-11 5-21 12-30ZM1227 948c6-9 10-16 18-21-2 7-8 14-18 21ZM1314 1695l19-17 2 2c-6 6-10 14-19 17l-2-2ZM1320 434l15-21c1 7-3 12-15 21ZM1591 1564l-15 21c0-7 0-7 15-21ZM1256 533l-12 21c-1-9 0-10 12-21ZM1477 637c6-7 12-7 19-8-4 5-11 9-19 8ZM1506 745c9 1 15 4 21 12l-22-9 1-3ZM1120 1602c3 8-2 15-4 22 0-7-2-15 4-22ZM1323 333c0 10-5 15-10 20 2-7 2-14 10-20ZM1291 892c2 7 0 16-7 22l7-22ZM1633 954l-16-23c8 2 13 10 16 23ZM1543 1527c-2 10-6 18-12 28 0-8 6-22 12-28ZM1095 887h20c-9 7-17 8-20 0ZM1184 465c-4 6-7 14-14 19 1-9 8-14 14-19ZM1727 1021l-5-13-7-12c7 6 12 15 14 24l-2 1ZM1278 550l12-17c0 8-4 14-9 19l-3-2ZM1271 481c-4 9-5 16-11 23 0-8 3-15 11-23ZM1642 842c-7-3-14-6-19-12 7 0 14 5 19 12ZM1217 1692l4-24 3 1c-1 8-2 16-5 24l-2-1ZM1218 969l-19 21c4-10 13-15 19-21ZM1335 361l-14 14c5-14 8-17 14-14ZM1136 1210l20-13c-4 8-12 14-20 13ZM1303 411l2-2 9-10 6-7c-2 8-7 15-14 21l-3-2ZM1181 957c-4 7-11 11-17 15l-2-2 18-15 1 2ZM1479 564c3-7 6-9 18-11-6 5-11 9-18 11ZM1451 637c6-5 12-3 21-1-9 3-15 2-21 1ZM1439 1612l13-21c-2 9-5 16-11 22l-2-1ZM1642 1482l-6 19-2-1c-1-7 4-12 5-19l3 1ZM1295 1482v27c-2-9-4-17-3-27h3ZM1391 1482l-1 21c-4-8-3-14 1-21ZM1520 767c-6-2-12-3-18-10 9 0 14 4 18 10ZM1664 1041c3 7 2 14 2 20-4-9-4-12-2-20ZM1542 1041c3 7 3 14 0 21l-3-20 3-1ZM1264 546c-4 6-5 13-14 18 3-9 9-14 14-18ZM1235 1250c-2-7 3-12 9-16l-7 17-2-1ZM1145 1110c-6 5-12 7-22 8 7-7 15-7 22-8ZM1353 704l15 2v2l-20 2-1-1 6-5ZM1506 1544l-9 22c-2-7 1-14 9-22ZM1675 960l-11-29 4 4 8 16c1 3 2 6-1 9ZM1304 993l6-22c2 7 0 14-6 22ZM1259 1671c-1 7-3 14-11 18 1-6 4-11 11-18ZM1348 1407c0-6-2-12 2-17 1 6 2 12-2 17ZM1427 703c6 2 12 4 13 12l-15-10 2-2ZM1315 418c0 8-6 13-10 19 2-7 5-14 10-19ZM1711 964l-20-24c8 6 16 14 20 24ZM1461 732c6-2 11-1 17 0-5 5-9 5-17 0ZM1137 1194c-6 5-11 8-22 8 8-4 14-8 23-8h-1ZM1400 380c1-9 4-11 16-13l-16 13ZM1606 1215c3-7-1-15 6-21l-4 21h-2ZM1174 899c2-5 5-7 16-16-2 7-10 15-16 16ZM1661 738l-22-4c7-3 9-3 22 4ZM1110 946l-17 5c5-4 10-9 17-5ZM1152 996c5-7 10-13 18-18-3 7-10 14-19 18h1ZM1227 471c-3 6-7 11-12 16 1-8 5-14 12-16ZM1320 1024c0-8 0-15 5-21 0 7-2 14-5 21ZM1182 1012l-17 17c3-9 9-14 17-17ZM1221 1029l-9 19c0-8 3-14 7-20l2 1ZM1203 435c1-8 7-12 13-17 2 3-1 5-3 6l-4 6-4 6-2-1ZM1394 431c4-13 5-14 13-16l-13 16ZM1428 798l-14-11 2-2c6 1 9 8 14 11l-2 2ZM1225 448c2-6 7-9 12-12-2 6-6 10-12 12ZM1244 952l-12 16-2-1 11-17 3 2ZM1374 403c2-6 4-11 11-16-2 8-5 13-11 16ZM1474 541c2-9 4-10 16-11l-16 11ZM1747 1056c6 2 8 7 10 15-6-5-8-10-10-15ZM1547 609c-5 3-9 5-16 2 5-5 11-3 16-2ZM1203 942l10-13 2 1-9 14-3-2ZM1253 448c0 6-3 10-8 14 0-5 0-5 8-14ZM1195 1262c3-10 4-12 12-19-3 8-7 14-12 18v1ZM1124 977c4-6 10-9 16-12l1 2-17 10ZM1184 1463l-8 16-1-1 6-16 3 1ZM1199 1678l-1-14c4 5 4 5 1 14ZM1195 1261a13943 13943 0 0 0 0 1v-1ZM1406 384l17-4c-8 7-11 8-17 4ZM1241 391l-8 12c0-6 2-10 6-13l2 1ZM1244 1058l8-16 2 1-3 7-5 9-2-1ZM1082 1004l15-2c-7 5-8 6-15 2ZM1667 1013l-5-12c6 2 6 7 7 11l-2 1ZM1181 557l11-14c-2 8-4 11-9 15l-2-1ZM1188 528c-2-5 1-8 4-11 0 7 0 7-4 11ZM1588 771l12 6c-7 2-7 2-13-4l1-2ZM1406 1433l-5-14c6 5 6 5 5 14ZM1278 1078l-7 15c-1-7-1-8 7-15ZM1649 834c5-1 8 1 10 6l-11-4 1-2ZM1245 415l10-15 2 2-10 14-2-1ZM1605 646c-4 1-9 1-14-2 6-2 10-2 14 2ZM1298 935l4-15h2l-4 15h-2ZM1455 707l-13-2c6-5 7-4 13 2ZM1209 460l-6 12c-2-6 1-9 3-13l3 1ZM986 1558l-4 11c-3-5-2-9 1-12l3 1ZM1623 980ZM1598 684c5-4 8-2 12 2l-12-2ZM1552 687h-13c6-4 6-4 13 0ZM1071 1615v-11c3 5 3 5 0 11ZM1008 1305l-9 3c3-5 3-5 9-3ZM948 1202c-2-4-1-7 3-10 3 5 2 8-3 10ZM1272 396c2 5 1 9-5 11l5-11ZM1530 1049l1 11c-4-3-5-7-4-11h3ZM1116 958l12-11 1 2-11 11-2-2ZM1677 970c-5-3-7-7-9-14l7 4 2 10ZM1711 964l9 12-2 1-7-13ZM1203 1549l3-12 2 1-3 12-2-1ZM1193 1001l-4 9-2-1a3621 3621 0 0 0 6-8ZM1292 1092a4103 4103 0 0 0-5 10l2-11 3 1ZM1265 1024l-5 10-2-1 5-10 2 1ZM1145 1679v-10h2v10h-2ZM1677 970c3 4 5 8 4 13l-4-13ZM998 1088l-11 1c5-5 8-3 11-3v2ZM1085 1615v9c-4-3-3-6 0-9ZM1080 1331l-4 11-2-1 6-10ZM1512 778l-6-5 2-1 6 4-2 2ZM1227 471l6-10 2 2c-2 3-4 6-8 8ZM1353 325l-3 10-2-1 5-9ZM1123 1525l-1 9-3-1 4-8ZM908 1130l3-8 2 1-5 7ZM1206 532l2-4 1 1-2 4-1-1ZM1450 561l6-3 1 1a1981 1981 0 0 0-7 2ZM1125 999l3-4 1 1-3 4-1-1ZM1138 1194l4-5 2 3-7 2h1ZM1691 940l-5-3 2-2 3 5ZM1741 1182l-4-5c4 0 4 2 4 5ZM1129 1058l7-4 1 2-8 2ZM1437 1573l2-6c2 3 0 5-2 6ZM1697 1272v-5h1v5h-1ZM980 1481l1-8 2 1-3 7ZM1140 1006l-4 4-1-1 1-3 3-1 1 1ZM1259 1671l3-6 2 1-5 5Z" style="fill:#231f20;fill-rule:nonzero" transform="matrix(.055 0 0 .055 2 0)"/><path d="m1151 996-4 5c-1-4 2-5 5-5h-1ZM1543 1527l1-8c3 4 2 6-1 8ZM853 1121l11-16 2 1c-9 27-25 53-33 81l-3-1v-6l15-37 6-18 2-4ZM1092 1665l4-8c5 3 2 6 1 8h-5ZM951 1833c5 2 4 5 3 7l-24 44-22 43-2 3c-1-6 2-12 5-17l24-47 11-23 5-10ZM864 2034c-4-1-2-3-1-5l14-31 19-42c1-3 3-5 6-6v5l-28 57-10 23v-1ZM833 1971c-21 22-44 41-62 65l-2-2 4-7 53-54 6-3 1 1ZM834 1917c6-11 42-50 51-54l-3 6-34 34-14 14ZM754 2094l40-48c5-5 10-12 19-16l-4 7-48 52-7 5ZM768 2058l6-11 40-44c1-2 3-3 6-3l-2 5-45 49-5 4ZM748 2160c14-19 28-38 46-53l-4 6-34 41c-2 3-4 6-8 6ZM956 1785l-30 39-5 2c-1-8 6-10 10-15l11-13 13-14 1 1ZM845 1939l-45 44c4-10 35-42 45-44ZM973 1780c-7 20-22 41-30 44 0-7 6-10 9-14l11-16 10-14ZM733 2207c13-16 22-37 40-50l-38 52-2-2ZM760 2118l1-3 33-38 5-1-3 5-33 35-3 2ZM771 2189l-27 42c4-17 15-30 25-43l2 1ZM850 1803l-13 13-1-2c4-4 8-9 14-11ZM768 2058l-7 13-2-2c1-5 5-8 9-11ZM748 2160c2 6-3 9-7 12 0-5 5-8 7-12ZM754 2094l-7 11-2-2 9-9ZM770 1966l-8 10-2-2c3-4 5-7 10-7v-1ZM754 2246c0-4 2-8 6-10 0 5-2 8-6 10ZM754 2246l-4 10-2-1 6-9ZM760 2118l-8 10 8-10ZM789 1995l-4 5h-2l4-6 2 1Z" style="fill:#231f20;fill-rule:nonzero" transform="matrix(.055 0 0 .055 2 0)"/><path d="m955 1784 6-7 2 2-7 6-1-1ZM736 1927l6-5 1 1-7 3v1ZM714 1981l7-6 1 2-8 3v1ZM752 2128c-1 3-1 6-5 8 0-4 3-6 5-8ZM760 2236l3-7 2 2a2469 2469 0 0 1-5 5ZM720 2056l-4 5-2-2 6-3ZM818 1841l3-4 1 1-3 4-1-1ZM808 1863l-2 3-4 3c1-5 3-6 6-6ZM895 1285c2 8-2 14-2 21-5-6-4-10 2-21ZM865 1425c0 6-1 12-6 17-2-8 4-12 6-17ZM884 2095l10-20h2l-9 25c-2 6-5 11-3 17l-1 6a2960 2960 0 0 1-18 41c0-9 4-16 6-23l2-11 3-11 8-25v1ZM886 2186l-3 3-1-1 3-3 1 1ZM1029 672c7-7 11-6 22 1l-22-1ZM1065 658l-20-3 2-4c7-2 12 2 18 4v3ZM1036 658c6 0 11 3 17 5-5 3-10 2-15 1l-2-6ZM1207 669l7-9c4 3 4 6 2 10-2 3-5 3-9-1ZM1029 688c-6 3-10 2-15-3 7-4 11 0 15 3ZM1041 682l-17-2c4-6 8-6 17 2ZM1022 699l-14-1c4-6 6-6 14 1ZM1010 710l-13-2c7-5 7-5 13 2ZM994 1663l-5 8-2-2a3864 3864 0 0 1 7-6ZM972 1653l-3 6-2-1 5-5ZM694 2347l6-4 1 1-6 5-1-2ZM820 1219c-1-7 0-13 6-19-1 8-1 14-6 19ZM870 1127l-6 13-3 4c0-9 4-13 7-18l2 1Z" style="fill:#231f20;fill-rule:nonzero" transform="matrix(.055 0 0 .055 2 0)"/></svg>